<svg width="32" height="32" viewBox="0 0 32 32" fill="none" xmlns="http://www.w3.org/2000/svg">
<path d="M2.6665 12.2667C2.6665 10.7732 2.6665 10.0265 2.95715 9.45603C3.21282 8.95426 3.62076 8.54631 4.12253 8.29065C4.69296 8 5.4397 8 6.93317 8H17.0665C18.56 8 19.3067 8 19.8771 8.29065C20.3789 8.54631 20.7869 8.95426 21.0425 9.45603C21.3332 10.0265 21.3332 10.7732 21.3332 12.2667V19.7333C21.3332 21.2268 21.3332 21.9735 21.0425 22.544C20.7869 23.0457 20.3789 23.4537 19.8771 23.7094C19.3067 24 18.56 24 17.0665 24H6.93317C5.4397 24 4.69296 24 4.12253 23.7094C3.62076 23.4537 3.21282 23.0457 2.95715 22.544C2.6665 21.9735 2.6665 21.2268 2.6665 19.7333V12.2667Z" fill="#437EF7"/>
<path d="M27.9998 15.253V16.747C27.9998 18.7456 27.9998 19.7449 27.5815 20.4009C27.2152 20.9751 26.6432 21.3874 25.9826 21.5532C25.2665 21.7331 24.3761 21.4576 22.6665 20.8888V11.1112C24.3761 10.5424 25.2665 10.2669 25.9826 10.4468C26.6432 10.6126 27.2152 11.0249 27.5815 11.5991C27.9998 12.2551 27.9998 13.2544 27.9998 15.253Z" fill="#437EF7"/>
</svg>
