<svg width="32" height="32" viewBox="0 0 32 32" fill="none" xmlns="http://www.w3.org/2000/svg">
<path d="M3.99984 4C3.26346 4 2.6665 4.59695 2.6665 5.33333C2.6665 6.06971 3.26346 6.66667 3.99984 6.66667H5.49915L7.16964 19.1953C7.4346 21.1825 9.12974 22.6667 11.1345 22.6667H22.7279C24.5563 22.6667 26.152 21.4268 26.6038 19.6551L28.4437 12.4403C29.0887 9.91116 27.1779 7.45185 24.5678 7.45185H8.29411L8.14242 6.31423C7.96578 4.98941 6.83569 4 5.49915 4H3.99984Z" fill="#437EF7"/>
<path d="M6.6665 26.6667C6.6665 25.1939 7.86041 24 9.33317 24C10.8059 24 11.9998 25.1939 11.9998 26.6667C11.9998 28.1394 10.8059 29.3333 9.33317 29.3333C7.86041 29.3333 6.6665 28.1394 6.6665 26.6667Z" fill="#437EF7"/>
<path d="M23.9998 24C22.5271 24 21.3332 25.1939 21.3332 26.6667C21.3332 28.1394 22.5271 29.3333 23.9998 29.3333C25.4726 29.3333 26.6665 28.1394 26.6665 26.6667C26.6665 25.1939 25.4726 24 23.9998 24Z" fill="#437EF7"/>
</svg>
